<svg width="570" height="393" viewBox="0 0 570 393" fill="none" xmlns="http://www.w3.org/2000/svg">
<mask id="mask0_54_58" style="mask-type:alpha" maskUnits="userSpaceOnUse" x="0" y="0" width="570" height="393">
<g clip-path="url(#clip0_54_58)">
<path fill-rule="evenodd" clip-rule="evenodd" d="M87.6844 98.7336C131.531 41.8009 207.245 -6.00886 328.308 0.598585C449.03 7.19681 521.509 75.1237 519.619 190.335C517.887 295.906 451.029 366.118 338.795 360.451C226.561 354.784 203.9 311.047 173.756 331.183C147.096 348.987 187.404 377.177 177.277 387.701C159.601 406.086 103.102 375.61 69.0785 313.241C38.0622 256.382 46.4916 152.22 87.6844 98.7336Z" fill="#0256E1"/>
</g>
</mask>
<g mask="url(#mask0_54_58)">
<rect width="570" height="393" fill="url(#paint0_linear_54_58)"/>
</g>
<defs>
<linearGradient id="paint0_linear_54_58" x1="-5.80128e-06" y1="393" x2="528.502" y2="-49.5565" gradientUnits="userSpaceOnUse">
<stop stop-color="#5A49F8"/>
<stop offset="1" stop-color="#7A64F2"/>
</linearGradient>
<clipPath id="clip0_54_58">
<rect width="469.294" height="393" fill="white" transform="translate(50.3528)"/>
</clipPath>
</defs>
</svg>
