<svg width="131" height="27" viewBox="0 0 131 27" fill="none" xmlns="http://www.w3.org/2000/svg">
<g opacity="0.8">
<line y1="12.8716" x2="33.6895" y2="12.8716" stroke="#6EB4FE" stroke-width="4" stroke-dasharray="7 7"/>
<path d="M98.2462 13H131" stroke="#6EB4FE" stroke-width="4" stroke-dasharray="7 7"/>
<path d="M80.1941 20.8008C81.7761 19.2188 82.7722 17.2266 82.7722 15C82.7722 10.3125 78.2605 6.44531 72.4011 5.80078C70.5847 2.40234 66.2488 0 61.2097 0C54.4714 0 49.0222 4.21875 49.0222 9.375C49.0222 11.543 49.9597 13.5352 51.6003 15.1758C50.6628 16.9336 49.3738 18.3398 49.3738 18.3984C49.0222 18.75 48.905 19.3359 49.0808 19.8633C49.3152 20.332 49.7839 20.6836 50.3699 20.6836C53.4753 20.6836 55.9949 19.4531 57.6941 18.3984C58.2214 18.5156 58.8074 18.5742 59.3347 18.6914C61.2097 22.0312 65.487 24.375 70.5847 24.375C71.7566 24.375 72.9284 24.2578 74.0417 24.0234C75.741 25.0781 78.2605 26.25 81.4245 26.25C81.9519 26.25 82.4206 25.957 82.655 25.4297C82.8308 24.9609 82.7722 24.375 82.362 23.9648C82.362 23.9648 81.073 22.5586 80.1941 20.8008ZM57.1667 15.3516L56.1706 15.9961C55.3503 16.582 54.4714 16.9922 53.6511 17.2852C53.7683 16.9922 53.9441 16.6992 54.1199 16.4062L54.9988 14.5898L53.5339 13.125C52.7722 12.3633 51.8347 11.0742 51.8347 9.375C51.8347 5.85938 56.112 2.8125 61.2097 2.8125C66.2488 2.8125 70.5847 5.85938 70.5847 9.375C70.5847 12.9492 66.2488 15.9375 61.2097 15.9375C60.2136 15.9375 59.2761 15.8789 58.3386 15.6445L57.1667 15.3516ZM78.2019 18.75L76.737 20.2148L77.6745 22.0312C77.7917 22.3242 77.9675 22.6172 78.1433 22.9102C77.2644 22.6172 76.4441 22.1484 75.6238 21.6211L74.5691 20.9766L73.4558 21.2695C72.5183 21.5039 71.5222 21.5625 70.5847 21.5625C67.4206 21.5625 64.5495 20.3906 62.8503 18.6914C68.8269 18.0469 73.3972 14.1211 73.3972 9.375C73.3972 9.1992 73.3386 9.0234 73.3386 8.7891C77.0886 9.668 79.9597 12.1289 79.9597 15C79.9597 16.6992 78.9636 17.9883 78.2019 18.75Z" fill="#0055AF"/>
</g>
</svg>
