<svg width="131" height="36" viewBox="0 0 131 36" fill="none" xmlns="http://www.w3.org/2000/svg">
<g opacity="0.8">
<line y1="17.8716" x2="33.6895" y2="17.8716" stroke="#6EB4FE" stroke-width="4" stroke-dasharray="7 7"/>
<path d="M98.2462 18H131" stroke="#6EB4FE" stroke-width="4" stroke-dasharray="7 7"/>
<path d="M65.8903 17.1105C65.6154 16.8356 65.1703 16.8356 64.8954 17.1105C64.6211 17.3847 64.6211 17.8298 64.8954 18.1047C65.1703 18.3789 65.6154 18.3789 65.8903 18.1047C66.1645 17.8298 66.1645 17.3847 65.8903 17.1105Z" fill="#70B5FF"/>
<path d="M74.839 8.16126C73.4651 6.78743 71.241 6.78736 69.867 8.16126C68.4967 9.53158 68.4966 11.7619 69.8672 13.1333C71.238 14.5033 73.4683 14.5039 74.839 13.1332C76.2128 11.7594 76.2131 9.53524 74.839 8.16126ZM73.8446 12.1388C73.0225 12.961 71.6841 12.961 70.8616 12.1389C70.0392 11.3161 70.0392 9.97778 70.8614 9.15562C71.6857 8.33135 73.0202 8.33121 73.8446 9.15562C74.6689 9.97982 74.6691 11.3144 73.8446 12.1388Z" fill="#70B5FF"/>
<path d="M82.7941 0.205952C82.656 0.0679287 82.4676 -0.00688373 82.2717 0.000499078C82.1127 0.00619438 78.3274 0.15835 73.8277 1.74875C70.2221 3.02182 67.2167 4.84453 64.895 7.16625C64.3748 7.68649 63.8685 8.23816 63.3842 8.81128C61.0886 7.46002 59.2491 7.88372 58.0862 8.50605C55.4086 9.93902 53.7512 13.8298 53.7512 16.6128C53.7514 16.8971 53.9228 17.1536 54.1855 17.2623C54.2725 17.2984 54.3639 17.3159 54.4544 17.3159C54.6374 17.3159 54.8172 17.2444 54.9517 17.11C56.3638 15.6979 58.1056 15.7862 58.6745 15.861L58.9208 16.1072C58.4362 17.2604 58.0458 18.407 57.7595 19.5223C57.6561 19.9258 57.691 20.3529 57.8446 20.7436C57.1677 21.0556 56.5145 21.5136 55.9458 22.0823C54.1359 23.8923 53.7684 28.3033 53.7536 28.4902C53.7374 28.6953 53.8118 28.8972 53.9573 29.0427C54.0897 29.175 54.2688 29.2486 54.4544 29.2486C54.4728 29.2486 54.4913 29.2479 54.5098 29.2465C54.6967 29.2318 59.1079 28.8642 60.9178 27.0543C61.4863 26.4859 61.9443 25.8328 62.2563 25.156C62.6699 25.3186 63.0955 25.3386 63.4783 25.2406C64.593 24.9543 65.7396 24.5641 66.8928 24.0794L67.1391 24.3256C67.2138 24.8947 67.3021 26.6364 65.8901 28.0483C65.6891 28.2494 65.6289 28.5518 65.7377 28.8145C65.8465 29.0773 66.1029 29.2486 66.3873 29.2486C69.1703 29.2486 73.061 27.5912 74.494 24.9137C75.1164 23.7509 75.5401 21.9114 74.1888 19.6158C74.7616 19.1316 75.3134 18.6253 75.8338 18.1049C78.1556 15.7832 79.9782 12.7778 81.2513 9.17247C82.8418 4.67262 82.9939 0.88728 82.9996 0.728373C83.0066 0.533256 82.9321 0.344046 82.7941 0.205952ZM55.3233 15.1004C55.7601 12.9866 57.0287 10.6671 58.75 9.74587C59.9002 9.13036 61.1575 9.19069 62.4943 9.92243C61.3554 11.4202 60.3653 13.0339 59.5401 14.7379C59.5296 14.7314 59.403 14.5723 59.1679 14.5193C59.0712 14.4974 57.2108 14.0973 55.3233 15.1004ZM59.9234 26.0599C58.9566 27.0267 56.6887 27.5366 55.2552 27.7448C55.4635 26.3113 55.9735 24.0434 56.9402 23.0767C57.4816 22.5353 58.1094 22.1248 58.7403 21.8936L61.1065 24.2598C60.8753 24.8907 60.4649 25.5185 59.9234 26.0599ZM63.129 23.8783C62.9255 23.9304 62.6898 23.8539 62.5146 23.679C61.605 22.7694 61.2491 22.4135 61.1375 22.3019C60.9327 22.0972 60.4306 21.5951 59.3216 20.486C59.1462 20.3102 59.0697 20.0746 59.1217 19.8715C59.3469 18.9944 59.6414 18.0946 59.9996 17.1861L65.8141 23.0005C64.9054 23.3588 64.0057 23.6532 63.129 23.8783ZM73.2543 24.2501C72.3331 25.9713 70.0136 27.24 67.8999 27.6767C68.5738 26.4085 68.7224 24.7941 68.4761 23.8151C68.419 23.5877 68.2706 23.4734 68.2623 23.46C69.9662 22.6347 71.5798 21.6446 73.0778 20.5058C73.8095 21.8427 73.8698 23.1001 73.2543 24.2501ZM74.8396 17.1105C74.206 17.7441 73.5238 18.3561 72.8118 18.9297C71.1002 20.3078 69.2164 21.4751 67.2066 22.4044L60.5958 15.7937C61.525 13.7838 62.6924 11.9 64.0703 10.1886C64.6444 9.47615 65.2564 8.79384 65.8897 8.16061C67.9727 6.07753 70.6611 4.41971 73.8822 3.22636L79.7739 9.11798C78.5807 12.3391 76.9228 15.0274 74.8396 17.1105ZM80.2798 7.63502L75.3652 2.72047C78.0428 1.88881 80.3722 1.5774 81.5349 1.46546C81.4229 2.62836 81.1114 4.95774 80.2798 7.63502Z" fill="#70B5FF"/>
<path d="M63.9011 29.0423C63.6264 28.7677 63.1812 28.7679 62.9067 29.0424L60.9182 31.0316C60.6437 31.3062 60.6438 31.7514 60.9184 32.0259C61.1931 32.3004 61.6383 32.3004 61.9128 32.0258L63.9013 30.0366C64.1758 29.762 64.1757 29.3168 63.9011 29.0423Z" fill="#70B5FF"/>
<path d="M53.9576 19.0991C53.6831 18.8244 53.238 18.8244 52.9633 19.0989L50.9741 21.0874C50.6995 21.3619 50.6994 21.8071 50.9739 22.0817C51.2483 22.3562 51.6935 22.3565 51.9683 22.0819L53.9574 20.0934C54.232 19.8189 54.2321 19.3737 53.9576 19.0991Z" fill="#70B5FF"/>
<path d="M58.9294 30.0375C58.655 29.7629 58.2097 29.7629 57.9351 30.0374L53.1721 34.7997C52.8974 35.0742 52.8974 35.5195 53.172 35.794C53.4464 36.0686 53.8917 36.0687 54.1663 35.7941L58.9293 31.0318C59.204 30.7573 59.204 30.312 58.9294 30.0375Z" fill="#70B5FF"/>
<path d="M53.3044 30.0375C53.0299 29.7629 52.5846 29.7629 52.3101 30.0374L47.5471 34.7997C47.2724 35.0742 47.2724 35.5195 47.547 35.794C47.8214 36.0686 48.2667 36.0687 48.5413 35.7941L53.3043 31.0318C53.579 30.7573 53.579 30.312 53.3044 30.0375Z" fill="#70B5FF"/>
<path d="M52.9626 24.0706C52.6881 23.7961 52.2428 23.7961 51.9682 24.0707L47.2059 28.8336C46.9313 29.1083 46.9313 29.5534 47.206 29.8281C47.4806 30.1026 47.9258 30.1026 48.2004 29.828L52.9626 25.065C53.2372 24.7904 53.2372 24.3453 52.9626 24.0706Z" fill="#70B5FF"/>
<path d="M68.8731 14.1273C68.5984 13.8527 68.1533 13.8527 67.8786 14.1273L66.8844 15.1215C66.6098 15.3961 66.6098 15.8413 66.8844 16.116C67.159 16.3905 67.6042 16.3905 67.8788 16.116L68.8731 15.1217C69.1476 14.8472 69.1476 14.402 68.8731 14.1273Z" fill="#70B5FF"/>
</g>
</svg>
