<svg width="101" height="80" viewBox="0 0 101 80" fill="none" xmlns="http://www.w3.org/2000/svg">
<g clip-path="url(#clip0_124_349)">
<path d="M96.3166 66.4931C95.9206 67.2381 95.5076 67.9341 95.0866 68.6081C92.6586 72.4921 89.8406 75.2001 86.7466 76.9961C76.2366 83.0981 62.5626 78.6941 50.3126 74.1831C30.6256 66.9311 13.8876 52.0191 5.1476 32.9171C0.946596 23.7371 -0.846404 11.4911 6.6566 4.71409C11.8746 0.00109339 19.5906 -0.184907 26.6906 0.0680929C27.0116 0.0790929 27.3326 0.0900929 27.6506 0.103093C31.8816 0.275093 36.1136 0.448093 40.3446 0.620093C45.5616 0.833093 50.7796 1.04509 55.9976 1.25609C57.7236 1.32709 59.4496 1.39709 61.1766 1.46709C67.9106 1.74009 74.8926 2.07709 80.8796 5.16009C90.1016 9.90809 95.0466 20.1561 97.8286 30.1211C97.9566 30.5781 98.0796 31.0391 98.2006 31.5001C101.24 43.1231 101.942 55.9271 96.3166 66.4931Z" fill="#A294FF"/>
</g>
<path d="M72 35C72 40.1463 68.0741 44.3333 63.25 44.3333H57C56.3091 44.3333 55.75 43.7363 55.75 43C55.75 42.2637 56.3091 41.6667 57 41.6667H63.25C66.6959 41.6667 69.5 38.6757 69.5 35C69.5 31.3243 66.6959 28.3333 63.25 28.3333H62C61.3091 28.3333 60.75 27.7363 60.75 27C60.75 21.8537 56.8241 17.6667 52 17.6667C47.1759 17.6667 43.25 21.8537 43.25 27C43.25 27.7363 42.6909 28.3333 42 28.3333H40.75C37.3041 28.3333 34.5 31.3243 34.5 35C34.5 38.6757 37.3041 41.6667 40.75 41.6667H47C47.6909 41.6667 48.25 42.2637 48.25 43C48.25 43.7363 47.6909 44.3333 47 44.3333H40.75C35.9259 44.3333 32 40.1463 32 35C32 29.8537 35.9259 25.6667 40.75 25.6667H40.8197C41.4434 19.675 46.2187 15 52 15C57.7812 15 62.5566 19.675 63.1803 25.6667H63.25C68.0744 25.6667 72 29.8537 72 35ZM56.1162 47.3907L53.25 50.448V33.6667C53.25 32.9303 52.6909 32.3333 52 32.3333C51.3091 32.3333 50.75 32.9303 50.75 33.6667V50.448L47.8837 47.3907C47.3953 46.8697 46.6044 46.8697 46.1163 47.3907C45.6281 47.9117 45.6278 48.7553 46.1163 49.276L51.1163 54.6093C51.3603 54.8697 51.6803 55 52 55C52.3197 55 52.6397 54.8697 52.8838 54.6093L57.8838 49.276C58.3722 48.755 58.3722 47.9113 57.8838 47.3907C57.3953 46.87 56.6044 46.8697 56.1162 47.3907Z" fill="#F8F9FA"/>
<defs>
<clipPath id="clip0_124_349">
<rect width="100" height="80" fill="white" transform="translate(0.518555)"/>
</clipPath>
</defs>
</svg>
