<svg width="51" height="51" viewBox="0 0 51 51" fill="none" xmlns="http://www.w3.org/2000/svg">
<circle cx="25.5" cy="25.5" r="25.5" fill="#F2E83D"/>
<path d="M36 25.4445C36.0038 26.911 35.6612 28.3577 35 29.6667C34.216 31.2353 33.0108 32.5546 31.5194 33.477C30.0279 34.3993 28.3091 34.8882 26.5555 34.8889C25.089 34.8927 23.6423 34.5501 22.3333 33.8889L16 36L18.1111 29.6667C17.4499 28.3577 17.1073 26.911 17.1111 25.4445C17.1118 23.6909 17.6007 21.9721 18.523 20.4806C19.4454 18.9892 20.7647 17.784 22.3333 17C23.6423 16.3388 25.089 15.9962 26.5555 16H27.1111C29.427 16.1278 31.6145 17.1053 33.2546 18.7454C34.8947 20.3855 35.8722 22.573 36 24.8889V25.4445Z" stroke="url(#paint0_linear_511_283)" stroke-width="2" stroke-linecap="round" stroke-linejoin="round"/>
<defs>
<linearGradient id="paint0_linear_511_283" x1="16" y1="36" x2="39.6603" y2="22.3397" gradientUnits="userSpaceOnUse">
<stop stop-color="#0055AF"/>
<stop offset="1" stop-color="#4DA3FF"/>
</linearGradient>
</defs>
</svg>
