<svg width="101" height="80" viewBox="0 0 101 80" fill="none" xmlns="http://www.w3.org/2000/svg">
<g clip-path="url(#clip0_124_348)">
<path d="M96.0573 66.4931C95.6613 67.2381 95.2483 67.9341 94.8273 68.6081C92.3993 72.4921 89.5813 75.2001 86.4873 76.9961C75.9773 83.0981 62.3033 78.6941 50.0533 74.1831C30.3663 66.9311 13.6283 52.0191 4.88832 32.9171C0.687318 23.7371 -1.10568 11.4911 6.39732 4.71409C11.6153 0.00109339 19.3313 -0.184907 26.4313 0.0680929C26.7523 0.0790929 27.0733 0.0900929 27.3913 0.103093C31.6223 0.275093 35.8543 0.448093 40.0853 0.620093C45.3023 0.833093 50.5203 1.04509 55.7383 1.25609C57.4643 1.32709 59.1903 1.39709 60.9173 1.46709C67.6513 1.74009 74.6333 2.07709 80.6203 5.16009C89.8423 9.90809 94.7873 20.1561 97.5693 30.1211C97.6973 30.5781 97.8203 31.0391 97.9413 31.5001C100.98 43.1231 101.682 55.9271 96.0573 66.4931Z" fill="#45E1CB"/>
</g>
<path d="M71.4074 21.6663H66.0741C65.8972 21.6663 65.7277 21.7365 65.6027 21.8615C65.4776 21.9865 65.4074 22.1561 65.4074 22.3329C65.4074 22.5097 65.4776 22.6793 65.6027 22.8043C65.7277 22.9294 65.8972 22.9996 66.0741 22.9996H71.4074C71.9376 23.0002 72.446 23.2111 72.821 23.586C73.1959 23.961 73.4068 24.4694 73.4074 24.9996V40.3332H36.0741V24.9996C36.0746 24.4694 36.2855 23.961 36.6605 23.586C37.0354 23.2111 37.5438 23.0002 38.0741 22.9996H43.4074C43.5842 22.9996 43.7538 22.9294 43.8788 22.8043C44.0038 22.6793 44.0741 22.5097 44.0741 22.3329C44.0741 22.1561 44.0038 21.9865 43.8788 21.8615C43.7538 21.7365 43.5842 21.6663 43.4074 21.6663H38.0741C37.1903 21.6673 36.3431 22.0188 35.7182 22.6437C35.0933 23.2686 34.7418 24.1159 34.7407 24.9996V43.6665C34.7418 44.5503 35.0933 45.3975 35.7182 46.0224C36.3431 46.6473 37.1903 46.9989 38.0741 46.9999H50.7077C50.5749 48.4608 50.0183 49.8511 49.1062 51H48.7407C48.0337 51.0007 47.3558 51.2818 46.8559 51.7818C46.3559 52.2817 46.0748 52.9596 46.0741 53.6666V54.3333C46.074 54.4209 46.0912 54.5076 46.1247 54.5885C46.1582 54.6694 46.2073 54.7429 46.2692 54.8048C46.3311 54.8668 46.4046 54.9159 46.4855 54.9493C46.5664 54.9828 46.6532 55 46.7407 55H62.7407C62.8283 55 62.915 54.9828 62.9959 54.9493C63.0768 54.9159 63.1503 54.8668 63.2122 54.8048C63.2742 54.7429 63.3233 54.6694 63.3567 54.5885C63.3902 54.5076 63.4074 54.4209 63.4074 54.3333V53.6666C63.4067 52.9596 63.1255 52.2817 62.6256 51.7818C62.1256 51.2818 61.4477 51.0007 60.7407 51H60.3757C59.4633 49.8512 58.9065 48.4609 58.7737 46.9999H71.4074C72.2911 46.9989 73.1384 46.6473 73.7633 46.0224C74.3882 45.3975 74.7397 44.5503 74.7407 43.6665V24.9996C74.7397 24.1159 74.3882 23.2686 73.7633 22.6437C73.1384 22.0188 72.2911 21.6673 71.4074 21.6663ZM62.0741 53.6666H47.4074C47.4078 53.3132 47.5485 52.9743 47.7984 52.7243C48.0484 52.4744 48.3872 52.3338 48.7407 52.3333H60.7407C61.0942 52.3338 61.4331 52.4744 61.683 52.7243C61.933 52.9743 62.0736 53.3132 62.0741 53.6666ZM58.7405 51H50.7409C51.4939 49.792 51.9427 48.4194 52.0488 46.9999H57.4326C57.5387 48.4194 57.9875 49.792 58.7405 51ZM71.4074 45.6666H38.0741C37.5438 45.666 37.0354 45.4551 36.6605 45.0801C36.2855 44.7052 36.0746 44.1968 36.0741 43.6665V41.6665H73.4074V43.6665C73.4068 44.1968 73.1959 44.7052 72.821 45.0801C72.446 45.4551 71.9376 45.666 71.4074 45.6666ZM54.535 36.3006C54.6687 36.344 54.8127 36.344 54.9464 36.3006C55.0376 36.2713 64.0741 33.2462 64.0741 24.9996V18.3329C64.0741 18.2453 64.0568 18.1586 64.0234 18.0777C63.9899 17.9968 63.9408 17.9233 63.8788 17.8614C63.8169 17.7995 63.7434 17.7504 63.6625 17.7169C63.5816 17.6834 63.4949 17.6662 63.4074 17.6662C60.4643 17.6187 57.595 16.7381 55.132 15.1265C55.0181 15.0442 54.8812 15 54.7407 15C54.6003 15 54.4633 15.0442 54.3494 15.1265C51.8864 16.7381 49.0171 17.6187 46.0741 17.6662C45.9865 17.6662 45.8998 17.6834 45.8189 17.7169C45.738 17.7504 45.6645 17.7995 45.6026 17.8614C45.5407 17.9233 45.4916 17.9968 45.4581 18.0777C45.4246 18.1586 45.4074 18.2453 45.4074 18.3329V24.9996C45.4074 33.2462 54.4438 36.2713 54.535 36.3006ZM46.7407 18.9846C49.5765 18.8311 52.3279 17.9654 54.7407 16.4676C57.1536 17.9654 59.9049 18.8311 62.7407 18.9846V24.9996C62.7407 31.6143 56.0142 34.4757 54.7407 34.9578C53.4673 34.4757 46.7407 31.6143 46.7407 24.9996V18.9846ZM49.6027 26.1376C49.4796 26.0123 49.4109 25.8433 49.4117 25.6676C49.4125 25.4918 49.4827 25.3235 49.607 25.1992C49.7312 25.0749 49.8996 25.0048 50.0753 25.004C50.251 25.0032 50.42 25.0718 50.5454 25.195L53.4074 28.057L58.9361 22.5282C58.9978 22.4657 59.0713 22.416 59.1524 22.382C59.2334 22.348 59.3204 22.3303 59.4083 22.33C59.4962 22.3297 59.5832 22.3469 59.6645 22.3804C59.7457 22.4139 59.8196 22.4631 59.8817 22.5253C59.9439 22.5874 59.9931 22.6613 60.0266 22.7425C60.0601 22.8238 60.0772 22.9108 60.0769 22.9987C60.0767 23.0866 60.059 23.1736 60.025 23.2546C59.991 23.3357 59.9413 23.4092 59.8787 23.4709L53.8787 29.471C53.8168 29.5329 53.7434 29.5821 53.6625 29.6156C53.5816 29.6491 53.4949 29.6663 53.4074 29.6663C53.3198 29.6663 53.2331 29.6491 53.1523 29.6156C53.0714 29.5821 52.9979 29.5329 52.936 29.471L49.6027 26.1376Z" fill="#F8F9FA"/>
<defs>
<clipPath id="clip0_124_348">
<rect width="100" height="80" fill="white" transform="translate(0.259277)"/>
</clipPath>
</defs>
</svg>
