<svg width="101" height="80" viewBox="0 0 101 80" fill="none" xmlns="http://www.w3.org/2000/svg">
<g clip-path="url(#clip0_124_350)">
<path d="M96.5759 66.4931C96.1799 67.2381 95.7669 67.9341 95.3459 68.6081C92.9179 72.4921 90.0999 75.2001 87.0059 76.9961C76.4959 83.0981 62.8219 78.6941 50.5719 74.1831C30.8849 66.9311 14.1469 52.0191 5.40687 32.9171C1.20587 23.7371 -0.587127 11.4911 6.91587 4.71409C12.1339 0.00109339 19.8499 -0.184907 26.9499 0.0680929C27.2709 0.0790929 27.5919 0.0900929 27.9099 0.103093C32.1409 0.275093 36.3729 0.448093 40.6039 0.620093C45.8209 0.833093 51.0389 1.04509 56.2569 1.25609C57.9829 1.32709 59.7089 1.39709 61.4359 1.46709C68.1699 1.74009 75.1519 2.07709 81.1389 5.16009C90.3609 9.90809 95.3059 20.1561 98.0879 30.1211C98.2159 30.5781 98.3389 31.0391 98.4599 31.5001C101.499 43.1231 102.201 55.9271 96.5759 66.4931Z" fill="#FF8686"/>
</g>
<path d="M56.1376 36.8636C55.7863 36.5123 55.2176 36.5123 54.8663 36.8636C54.5159 37.214 54.5159 37.7827 54.8663 38.134C55.2176 38.4843 55.7863 38.4843 56.1376 38.134C56.488 37.7827 56.488 37.214 56.1376 36.8636Z" fill="#F8F9FA"/>
<path d="M67.5722 25.428C65.8166 23.6725 62.9746 23.6724 61.219 25.428C59.468 27.1789 59.4679 30.0288 61.2193 31.7812C62.9709 33.5317 65.8207 33.5324 67.5722 31.781C69.3275 30.0256 69.3279 27.1836 67.5722 25.428ZM66.3016 30.5103C65.251 31.561 63.5409 31.561 62.4898 30.5105C61.4391 29.4591 61.439 27.7491 62.4897 26.6985C63.5429 25.6453 65.2481 25.6451 66.3016 26.6985C67.3548 27.7517 67.355 29.457 66.3016 30.5103Z" fill="#F8F9FA"/>
<path d="M77.7369 15.2632C77.5605 15.0868 77.3197 14.9912 77.0694 15.0006C76.8663 15.0079 72.0295 15.2023 66.2799 17.2345C61.6727 18.8612 57.8325 21.1902 54.8659 24.1569C54.2012 24.8216 53.5543 25.5265 52.9353 26.2589C50.0021 24.5322 47.6516 25.0736 46.1657 25.8688C42.7443 27.6999 40.6266 32.6714 40.6266 36.2275C40.6269 36.5908 40.8458 36.9184 41.1815 37.0574C41.2926 37.1035 41.4094 37.1259 41.5251 37.1259C41.759 37.1259 41.9887 37.0345 42.1606 36.8627C43.9649 35.0584 46.1905 35.1713 46.9175 35.2669L47.2321 35.5815C46.6129 37.0549 46.1141 38.5201 45.7482 39.9451C45.6162 40.4608 45.6607 41.0065 45.8571 41.5057C44.992 41.9043 44.1575 42.4897 43.4308 43.2163C41.1181 45.5291 40.6485 51.1653 40.6296 51.4041C40.609 51.6662 40.704 51.9242 40.8899 52.1101C41.0591 52.2792 41.2879 52.3733 41.5251 52.3733C41.5487 52.3733 41.5723 52.3724 41.5959 52.3705C41.8347 52.3517 47.4712 51.8821 49.7839 49.5694C50.5103 48.843 51.0955 48.0086 51.4941 47.1437C52.0226 47.3515 52.5665 47.3771 53.0556 47.2518C54.48 46.8861 55.945 46.3874 57.4187 45.7681L57.7333 46.0828C57.8288 46.8099 57.9416 49.0354 56.1374 50.8395C55.8805 51.0965 55.8036 51.4829 55.9427 51.8186C56.0817 52.1543 56.4093 52.3732 56.7727 52.3732C60.3287 52.3732 65.3002 50.2555 67.1313 46.8341C67.9265 45.3484 68.4679 42.9979 66.7413 40.0646C67.4732 39.4459 68.1782 38.7991 68.8433 38.134C71.8099 35.1674 74.1389 31.3272 75.7656 26.7204C77.7979 20.9706 77.9922 16.1337 77.9995 15.9307C78.0084 15.6814 77.9133 15.4396 77.7369 15.2632ZM42.6353 34.295C43.1934 31.594 44.8145 28.6302 47.0139 27.4531C48.4836 26.6666 50.0902 26.7437 51.7983 27.6787C50.3431 29.5925 49.078 31.6544 48.0235 33.8318C48.0101 33.8235 47.8484 33.6202 47.5479 33.5525C47.4244 33.5245 45.0472 33.0132 42.6353 34.295ZM48.5133 48.2988C47.2779 49.5341 44.38 50.1857 42.5484 50.4517C42.8145 48.62 43.4661 45.7221 44.7014 44.4869C45.3932 43.7951 46.1953 43.2706 47.0016 42.9752L50.025 45.9986C49.7296 46.8048 49.2052 47.607 48.5133 48.2988ZM52.6093 45.5112C52.3493 45.5778 52.0481 45.48 51.8242 45.2565C50.6619 44.0942 50.2072 43.6395 50.0645 43.4969C49.8029 43.2353 49.1613 42.5937 47.7442 41.1765C47.5202 40.952 47.4224 40.6509 47.4888 40.3914C47.7766 39.2706 48.1529 38.1208 48.6106 36.96L56.0403 44.3896C54.8792 44.8473 53.7296 45.2236 52.6093 45.5112ZM65.5472 45.9863C64.3701 48.1856 61.4063 49.8067 58.7054 50.3647C59.5666 48.7442 59.7564 46.6813 59.4418 45.4304C59.3687 45.1399 59.1792 44.9938 59.1686 44.9766C61.3458 43.9221 63.4076 42.657 65.3216 41.2018C66.2566 42.9101 66.3336 44.5168 65.5472 45.9863ZM67.5729 36.8635C66.7633 37.673 65.8915 38.455 64.9818 39.1879C62.7948 40.9488 60.3877 42.4404 57.8195 43.6278L49.3724 35.1809C50.5598 32.6126 52.0514 30.2055 53.8121 28.0188C54.5456 27.1084 55.3276 26.2366 56.1369 25.4274C58.7985 22.7657 62.2336 20.6474 66.3495 19.1226L73.8778 26.6508C72.3531 30.7666 70.2348 34.2017 67.5729 36.8635ZM74.5242 24.7559L68.2444 18.4762C71.6658 17.4135 74.6423 17.0156 76.1279 16.8725C75.9848 18.3585 75.5868 21.3349 74.5242 24.7559Z" fill="#F8F9FA"/>
<path d="M53.5958 52.1097C53.2448 51.7589 52.6759 51.7591 52.3252 52.1099L49.7844 54.6516C49.4336 55.0025 49.4337 55.5714 49.7845 55.9221C50.1356 56.2729 50.7045 56.2729 51.0552 55.922L53.596 53.3803C53.9468 53.0294 53.9467 52.4605 53.5958 52.1097Z" fill="#F8F9FA"/>
<path d="M40.8904 39.4043C40.5396 39.0534 39.9708 39.0534 39.6198 39.4042L37.0781 41.9449C36.7272 42.2957 36.7271 42.8646 37.0778 43.2155C37.4285 43.5662 37.9973 43.5666 38.3484 43.2157L40.8901 40.6749C41.241 40.3242 41.2411 39.7553 40.8904 39.4043Z" fill="#F8F9FA"/>
<path d="M47.2431 53.3813C46.8925 53.0305 46.3235 53.0305 45.9726 53.3812L39.8865 59.4663C39.5356 59.8172 39.5356 60.3861 39.8864 60.7369C40.2371 61.0877 40.8061 61.0879 41.157 60.737L47.243 54.6519C47.594 54.301 47.594 53.7321 47.2431 53.3813Z" fill="#F8F9FA"/>
<path d="M40.0556 53.3813C39.7049 53.0305 39.1359 53.0305 38.7851 53.3812L32.699 59.4663C32.3481 59.8172 32.3481 60.3861 32.6989 60.7369C33.0496 61.0877 33.6186 61.0879 33.9695 60.737L40.0555 54.6519C40.4065 54.301 40.4065 53.7321 40.0556 53.3813Z" fill="#F8F9FA"/>
<path d="M39.6189 45.7567C39.2681 45.406 38.6991 45.406 38.3483 45.7568L32.2631 51.8428C31.9123 52.1937 31.9123 52.7625 32.2632 53.1135C32.6141 53.4643 33.1829 53.4643 33.5338 53.1134L39.6189 47.0274C39.9698 46.6764 39.9698 46.1076 39.6189 45.7567Z" fill="#F8F9FA"/>
<path d="M59.9489 33.0512C59.5979 32.7004 59.0292 32.7004 58.6782 33.0512L57.4078 34.3216C57.0569 34.6724 57.0569 35.2413 57.4078 35.5923C57.7587 35.9431 58.3275 35.9431 58.6785 35.5923L59.9489 34.3219C60.2997 33.971 60.2997 33.4021 59.9489 33.0512Z" fill="#F8F9FA"/>
<defs>
<clipPath id="clip0_124_350">
<rect width="100" height="80" fill="white" transform="translate(0.777832)"/>
</clipPath>
</defs>
</svg>
