<svg width="60" height="60" viewBox="0 0 60 60" fill="none" xmlns="http://www.w3.org/2000/svg">
<rect width="60" height="60" rx="30" fill="#75B8FF"/>
<path d="M30 25.5C32.0625 25.5 33.75 23.8594 33.75 21.75C33.75 19.6875 32.0625 18 30 18C27.8906 18 26.25 19.6875 26.25 21.75C26.25 23.8594 27.8906 25.5 30 25.5ZM27.4688 37.1719L28.6875 35.6719L25.7812 33.2812L23.625 35.9531C23.1094 36.6562 23.1094 37.5938 23.625 38.25L25.875 41.25C26.2031 41.7656 26.7656 42 27.375 42C27.75 42 28.125 41.9062 28.5 41.625C29.2969 41.0156 29.4844 39.8438 28.875 39L27.4688 37.1719ZM34.1719 33.2812L31.2656 35.6719L32.4844 37.1719L31.125 39C30.4688 39.8438 30.6562 41.0156 31.5 41.625C31.8281 41.9062 32.2031 42 32.625 42C33.1875 42 33.75 41.7656 34.125 41.25L36.375 38.25C36.8438 37.5938 36.8438 36.6562 36.3281 35.9531L34.1719 33.2812ZM38.625 24.7969C38.0625 23.9531 36.8906 23.7656 36.0469 24.375L34.125 25.6875C31.6406 27.4219 28.3125 27.4219 25.8281 25.6875L23.9531 24.375C23.0625 23.7656 21.9375 23.9531 21.3281 24.7969C20.7188 25.6875 20.9531 26.8125 21.7969 27.4219L23.6719 28.7812C24.4688 29.3438 25.3594 29.7656 26.25 30.0938V31.5H33.75V30.0938C34.6406 29.7656 35.4844 29.3438 36.2812 28.7812L38.2031 27.4219C39.0469 26.8125 39.2344 25.6875 38.625 24.7969Z" fill="#F8F9FA"/>
</svg>
