<svg width="60" height="60" viewBox="0 0 60 60" fill="none" xmlns="http://www.w3.org/2000/svg">
<rect width="60" height="60" rx="30" fill="#45E1CB"/>
<path d="M19.5 28.5C21.1406 28.5 22.5 27.1875 22.5 25.5C22.5 23.8594 21.1406 22.5 19.5 22.5C17.8125 22.5 16.5 23.8594 16.5 25.5C16.5 27.1875 17.8125 28.5 19.5 28.5ZM40.5 28.5C42.1406 28.5 43.5 27.1875 43.5 25.5C43.5 23.8594 42.1406 22.5 40.5 22.5C38.8125 22.5 37.5 23.8594 37.5 25.5C37.5 27.1875 38.8125 28.5 40.5 28.5ZM42 30H39C38.1562 30 37.4062 30.375 36.8438 30.8906C38.7656 31.9219 40.0781 33.7969 40.4062 36H43.5C44.2969 36 45 35.3438 45 34.5V33C45 31.3594 43.6406 30 42 30ZM30 30C32.8594 30 35.25 27.6562 35.25 24.75C35.25 21.8906 32.8594 19.5 30 19.5C27.0938 19.5 24.75 21.8906 24.75 24.75C24.75 27.6562 27.0938 30 30 30ZM33.5625 31.5H33.1875C32.2031 31.9688 31.125 32.25 30 32.25C28.8281 32.25 27.75 31.9688 26.7656 31.5H26.3906C23.3906 31.5 21 33.9375 21 36.9375V38.25C21 39.5156 21.9844 40.5 23.25 40.5H36.75C37.9688 40.5 39 39.5156 39 38.25V36.9375C39 33.9375 36.5625 31.5 33.5625 31.5ZM23.1094 30.8906C22.5469 30.375 21.7969 30 21 30H18C16.3125 30 15 31.3594 15 33V34.5C15 35.3438 15.6562 36 16.5 36H19.5469C19.875 33.7969 21.1875 31.9219 23.1094 30.8906Z" fill="#F8F9FA"/>
</svg>
