<svg width="131" height="31" viewBox="0 0 131 31" fill="none" xmlns="http://www.w3.org/2000/svg">
<g opacity="0.8">
<path d="M56.3127 12.9375H55.7267C55.1994 12.9375 54.7892 13.4062 54.7892 13.875V14.8125C54.7892 15.3398 55.1994 15.75 55.7267 15.75H56.6057C56.6057 18.3867 56.3127 20.8477 55.7267 23.25H63.2267C62.5822 20.8477 62.2892 18.3867 62.2892 15.75H63.2267C63.6955 15.75 64.1642 15.3398 64.1642 14.8125V13.875C64.1642 13.4062 63.6955 12.9375 63.2267 12.9375H62.6408L64.5744 7.66406C64.633 7.54688 64.633 7.42969 64.633 7.37109C64.633 6.84375 64.2228 6.43359 63.6955 6.43359V6.375H60.4142V4.5H61.8205C62.0549 4.5 62.2892 4.32422 62.2892 4.03125V3.09375C62.2892 2.85938 62.0549 2.625 61.8205 2.625H60.4142V1.21875C60.4142 0.984375 60.1799 0.75 59.9455 0.75H59.008C58.715 0.75 58.5392 0.984375 58.5392 1.21875V2.625H57.133C56.84 2.625 56.6642 2.85938 56.6642 3.09375V4.03125C56.6642 4.32422 56.84 4.5 57.133 4.5H58.5392V6.375H55.1994C54.6721 6.375 54.2619 6.84375 54.2619 7.3125C54.2619 7.42969 54.2619 7.54688 54.3205 7.66406L56.3127 12.9375ZM66.4494 27.7031L65.1017 27V26.0625C65.1017 25.5938 64.633 25.125 64.1642 25.125H54.7892C54.2619 25.125 53.8517 25.5938 53.8517 26.0625V27L52.4455 27.7031C52.1525 27.8789 51.9767 28.1719 51.9767 28.5234V29.8125C51.9767 30.3398 52.3869 30.75 52.9142 30.75H66.0392C66.508 30.75 66.9767 30.3398 66.9767 29.8125V28.5234C66.9767 28.1719 66.7424 27.8789 66.4494 27.7031ZM71.84 18.4453L71.6642 23.25H79.1057L78.9299 18.4453L80.3361 17.2148C80.7463 16.9219 81.0392 16.3945 81.0392 15.8086V12.3516C81.0392 12.1758 80.8635 12 80.6877 12H79.1057C78.9299 12 78.7541 12.1758 78.7541 12.3516V13.875H77.2892V12.3516C77.2892 12.1758 77.1721 12 76.9377 12H73.8322C73.5978 12 73.4807 12.1758 73.4807 12.3516V13.875H72.0158V12.3516C72.0158 12.1758 71.84 12 71.6642 12H70.1408C69.9064 12 69.7892 12.1758 69.7892 12.3516V15.8086C69.7892 16.3945 70.0236 16.9219 70.4338 17.2148L71.84 18.4453ZM74.4767 18.5625C74.4767 18.0938 74.8869 17.625 75.4142 17.625C75.883 17.625 76.3517 18.0938 76.3517 18.5625V20.4375H74.4767V18.5625ZM81.4494 27.7031L80.1017 27V26.0625C80.1017 25.5938 79.633 25.125 79.1642 25.125H71.6642C71.1369 25.125 70.7267 25.5938 70.7267 26.0625V27L69.3205 27.7031C69.0275 27.8789 68.8517 28.1719 68.8517 28.5234V29.8125C68.8517 30.3398 69.2619 30.75 69.7892 30.75H81.0392C81.508 30.75 81.9767 30.3398 81.9767 29.8125V28.5234C81.9767 28.1719 81.7424 27.8789 81.4494 27.7031Z" fill="#0055AF"/>
<line y1="19.8713" x2="33.6895" y2="19.8713" stroke="#6EB4FE" stroke-width="4" stroke-dasharray="7 7"/>
<path d="M98.2462 20H131" stroke="#6EB4FE" stroke-width="4" stroke-dasharray="7 7"/>
</g>
</svg>
