<svg width="60" height="60" viewBox="0 0 60 60" fill="none" xmlns="http://www.w3.org/2000/svg">
<rect width="60" height="60" rx="30" fill="#FF8686"/>
<path d="M33.0909 25.4055C33.0909 25.1729 33.1749 24.9335 33.3428 24.6874C33.5108 24.4414 33.6967 24.2801 33.9007 24.2035C34.6477 23.9451 35.3947 23.7512 36.1416 23.622C36.8886 23.4927 37.6747 23.4281 38.5 23.4281C39.0151 23.4281 39.5241 23.4607 40.0269 23.5258C40.5297 23.5909 41.0253 23.6747 41.5136 23.7771C41.7454 23.8288 41.9453 23.958 42.1133 24.1648C42.2812 24.3716 42.3647 24.6042 42.3636 24.8627C42.3636 25.3021 42.222 25.6252 41.9386 25.832C41.6553 26.0388 41.2947 26.0905 40.8568 25.9871C40.4962 25.9095 40.1165 25.8511 39.7178 25.8118C39.3191 25.7725 38.9131 25.7534 38.5 25.7544C37.8303 25.7544 37.1735 25.8191 36.5295 25.9483C35.8856 26.0775 35.2674 26.2456 34.675 26.4523C34.2114 26.6333 33.8317 26.6203 33.536 26.4136C33.2403 26.2068 33.0919 25.8708 33.0909 25.4055ZM33.0909 33.9354C33.0909 33.7027 33.1749 33.4634 33.3428 33.2173C33.5108 32.9712 33.6972 32.8099 33.9023 32.7334C34.6492 32.4749 35.3962 32.2811 36.1432 32.1518C36.8901 32.0226 37.6758 31.958 38.5 31.958C39.0151 31.958 39.5241 31.9906 40.0269 32.0557C40.5297 32.1208 41.0253 32.2046 41.5136 32.3069C41.7454 32.3586 41.9453 32.4879 42.1133 32.6947C42.2812 32.9014 42.3647 33.1341 42.3636 33.3926C42.3636 33.832 42.222 34.1551 41.9386 34.3619C41.6553 34.5686 41.2947 34.6203 40.8568 34.5169C40.4962 34.4394 40.1165 34.381 39.7178 34.3417C39.3191 34.3024 38.9131 34.2833 38.5 34.2843C37.8303 34.2843 37.1735 34.3427 36.5295 34.4596C35.8856 34.5764 35.2674 34.7377 34.675 34.9434C34.2114 35.1244 33.8312 35.1177 33.5344 34.9233C33.2377 34.7289 33.0899 34.4001 33.0909 33.9369V33.9354ZM33.0909 29.6704C33.0909 29.4378 33.1749 29.1984 33.3428 28.9524C33.5108 28.7063 33.6972 28.545 33.9023 28.4685C34.6492 28.21 35.3962 28.0161 36.1432 27.8869C36.8901 27.7577 37.6758 27.693 38.5 27.693C39.0151 27.693 39.5241 27.7256 40.0269 27.7908C40.5297 27.8559 41.0253 27.9396 41.5136 28.042C41.7454 28.0937 41.9453 28.2229 42.1133 28.4297C42.2812 28.6365 42.3647 28.8691 42.3636 29.1276C42.3636 29.567 42.222 29.8901 41.9386 30.0969C41.6553 30.3037 41.2947 30.3554 40.8568 30.252C40.4962 30.1745 40.1165 30.116 39.7178 30.0768C39.3191 30.0375 38.9131 30.0183 38.5 30.0194C37.8303 30.0194 37.1735 30.084 36.5295 30.2132C35.8856 30.3425 35.2674 30.5105 34.675 30.7173C34.2114 30.8982 33.8317 30.8853 33.536 30.6785C33.2403 30.4717 33.0919 30.1357 33.0909 29.6704ZM21.5 36.6106C22.7106 36.6106 23.8893 36.7466 25.036 37.0185C26.1827 37.2905 27.3222 37.6973 28.4545 38.2391V22.9628C27.3985 22.3425 26.278 21.8772 25.0932 21.567C23.9083 21.2569 22.7106 21.1018 21.5 21.1018C20.5727 21.1018 19.6516 21.1922 18.7367 21.3732C17.8218 21.5541 16.9399 21.8255 16.0909 22.1874V37.5412C16.9924 37.231 17.8878 36.9984 18.7769 36.8433C19.6661 36.6882 20.5738 36.6106 21.5 36.6106ZM31.5454 38.2391C32.6788 37.6963 33.8183 37.2889 34.964 37.017C36.1097 36.7451 37.2884 36.6096 38.5 36.6106C39.4273 36.6106 40.3355 36.6882 41.2246 36.8433C42.1138 36.9984 43.0086 37.231 43.9091 37.5412V22.1874C43.0591 21.8255 42.1766 21.5541 41.2617 21.3732C40.3468 21.1922 39.4262 21.1018 38.5 21.1018C37.2894 21.1018 36.0917 21.2569 34.9068 21.567C33.722 21.8772 32.6015 22.3425 31.5454 22.9628V38.2391ZM30 42C29.6394 42 29.2978 41.9545 28.9754 41.8635C28.6529 41.7725 28.3505 41.65 28.0682 41.4959C27.0636 40.9014 26.0076 40.4558 24.9 40.1591C23.7924 39.8623 22.6591 39.7135 21.5 39.7124C20.4182 39.7124 19.3554 39.8546 18.3117 40.1389C17.268 40.4232 16.2702 40.8239 15.3182 41.3409C14.7773 41.6252 14.2559 41.6123 13.7542 41.3021C13.2524 40.9919 13.001 40.5396 13 39.9451V21.2569C13 20.9725 13.0711 20.7011 13.2133 20.4426C13.3555 20.1842 13.5677 19.9903 13.85 19.8611C15.0348 19.2407 16.2712 18.7754 17.5591 18.4653C18.847 18.1551 20.1606 18 21.5 18C22.9939 18 24.4559 18.1939 25.886 18.5816C27.3161 18.9693 28.6874 19.5509 30 20.3263C31.3136 19.5509 32.6855 18.9693 34.1155 18.5816C35.5456 18.1939 37.0071 18 38.5 18C39.8394 18 41.153 18.1551 42.4409 18.4653C43.7288 18.7754 44.9651 19.2407 46.15 19.8611C46.4333 19.9903 46.6461 20.1842 46.7883 20.4426C46.9304 20.7011 47.001 20.9725 47 21.2569V39.9451C47 40.5396 46.7491 40.9919 46.2474 41.3021C45.7456 41.6123 45.2237 41.6252 44.6818 41.3409C43.7288 40.8239 42.7309 40.4232 41.6883 40.1389C40.6456 39.8546 39.5828 39.7124 38.5 39.7124C37.3409 39.7124 36.2076 39.8613 35.1 40.1591C33.9924 40.4568 32.9364 40.9025 31.9318 41.4959C31.6485 41.651 31.3456 41.7741 31.0231 41.8651C30.7006 41.956 30.3596 42.001 30 42Z" fill="#F8F9FA"/>
</svg>
