<svg width="230" height="230" viewBox="0 0 230 230" fill="none" xmlns="http://www.w3.org/2000/svg">
<g filter="url(#filter0_d_125_212)">
<rect x="35" y="35" width="160" height="160" rx="80" fill="white" shape-rendering="crispEdges"/>
</g>
<path d="M141.737 137.067C141.775 137.015 141.765 137.032 141.811 136.956C141.844 136.9 141.834 136.921 141.87 136.846C141.9 136.782 141.89 136.806 141.917 136.732C142.035 136.404 141.992 138.491 141.994 84.2999C141.994 83.5817 141.408 83 140.685 83H88.3094C87.5863 83 87 83.5818 87 84.2999V146.694C87 147.413 87.5862 147.994 88.3094 147.994C131.85 147.992 130.359 148.04 130.711 147.895C130.723 147.89 130.809 147.85 130.827 147.841C130.836 147.835 130.92 147.787 130.937 147.775C130.946 147.769 131.031 147.707 131.04 147.7C131.132 147.624 141.614 137.209 141.627 137.197C141.651 137.171 141.707 137.107 141.737 137.067ZM89.6187 85.5991H139.376V134.995H130.21C129.486 134.995 128.9 135.577 128.9 136.295V145.395H89.6187V85.5991ZM137.524 137.595L131.519 143.556V137.595H137.524Z" fill="#45E1CB"/>
<path d="M110.569 131.095H135.447C136.17 131.095 136.757 130.514 136.757 129.796C136.757 129.078 136.17 128.496 135.447 128.496H110.569C109.846 128.496 109.26 129.078 109.26 129.796C109.26 130.514 109.846 131.095 110.569 131.095Z" fill="#45E1CB"/>
<path d="M124.972 133.695H110.569C109.846 133.695 109.26 134.278 109.26 134.995C109.26 135.713 109.846 136.295 110.569 136.295H124.972C125.695 136.295 126.282 135.713 126.282 134.995C126.282 134.278 125.695 133.695 124.972 133.695Z" fill="#45E1CB"/>
<path d="M110.569 114.197H135.447C136.17 114.197 136.757 113.616 136.757 112.898C136.757 112.179 136.17 111.598 135.447 111.598H110.569C109.846 111.598 109.26 112.179 109.26 112.898C109.26 113.616 109.846 114.197 110.569 114.197Z" fill="#45E1CB"/>
<path d="M110.569 119.397H135.447C136.17 119.397 136.757 118.814 136.757 118.097C136.757 117.378 136.17 116.797 135.447 116.797H110.569C109.846 116.797 109.26 117.379 109.26 118.097C109.26 118.814 109.846 119.397 110.569 119.397Z" fill="#45E1CB"/>
<path d="M110.569 97.2986H135.447C136.17 97.2986 136.757 96.7168 136.757 95.9987C136.757 95.281 136.17 94.6987 135.447 94.6987H110.569C109.846 94.6987 109.26 95.281 109.26 95.9987C109.26 96.7169 109.846 97.2986 110.569 97.2986Z" fill="#45E1CB"/>
<path d="M110.569 102.498H135.447C136.17 102.498 136.757 101.917 136.757 101.198C136.757 100.481 136.17 99.8984 135.447 99.8984H110.569C109.846 99.8984 109.26 100.481 109.26 101.198C109.26 101.917 109.846 102.498 110.569 102.498Z" fill="#45E1CB"/>
<path d="M104.405 109.379L96.1659 117.558L94.4729 115.878C93.9615 115.37 93.1325 115.37 92.6211 115.878C92.1098 116.385 92.1098 117.208 92.6211 117.716L95.24 120.315C95.7514 120.823 96.5804 120.823 97.0917 120.315L106.257 111.217C106.769 110.709 106.769 109.886 106.257 109.379C105.746 108.871 104.917 108.871 104.405 109.379Z" fill="#45E1CB"/>
<path d="M104.405 92.4796L96.1659 100.659L94.4729 98.9792C93.9615 98.4712 93.1325 98.4712 92.6211 98.9792C92.1098 99.4866 92.1098 100.31 92.6211 100.818L95.24 103.417C95.751 103.925 96.5804 103.925 97.0917 103.417L106.257 94.318C106.769 93.81 106.769 92.987 106.257 92.4796C105.746 91.9716 104.917 91.9716 104.405 92.4796Z" fill="#45E1CB"/>
<path d="M104.405 126.277L96.1659 134.457L94.4729 132.776C93.9615 132.269 93.1325 132.269 92.6211 132.776C92.1098 133.283 92.1098 134.107 92.6211 134.615L95.24 137.214C95.7514 137.722 96.5804 137.722 97.0917 137.214L106.257 128.115C106.769 127.608 106.769 126.784 106.257 126.277C105.746 125.769 104.917 125.769 104.405 126.277Z" fill="#45E1CB"/>
<defs>
<filter id="filter0_d_125_212" x="0" y="0" width="230" height="230" filterUnits="userSpaceOnUse" color-interpolation-filters="sRGB">
<feFlood flood-opacity="0" result="BackgroundImageFix"/>
<feColorMatrix in="SourceAlpha" type="matrix" values="0 0 0 0 0 0 0 0 0 0 0 0 0 0 0 0 0 0 127 0" result="hardAlpha"/>
<feOffset/>
<feGaussianBlur stdDeviation="17.5"/>
<feComposite in2="hardAlpha" operator="out"/>
<feColorMatrix type="matrix" values="0 0 0 0 0.466667 0 0 0 0 0.466667 0 0 0 0 0.470588 0 0 0 0.13 0"/>
<feBlend mode="normal" in2="BackgroundImageFix" result="effect1_dropShadow_125_212"/>
<feBlend mode="normal" in="SourceGraphic" in2="effect1_dropShadow_125_212" result="shape"/>
</filter>
</defs>
</svg>
