<svg width="100" height="80" viewBox="0 0 100 80" fill="none" xmlns="http://www.w3.org/2000/svg">
<g clip-path="url(#clip0_124_277)">
<path d="M95.798 66.4931C95.402 67.2381 94.989 67.9341 94.568 68.6081C92.14 72.4921 89.322 75.2001 86.228 76.9961C75.718 83.0981 62.044 78.6941 49.794 74.1831C30.107 66.9311 13.369 52.0191 4.62898 32.9171C0.42798 23.7371 -1.36502 11.4911 6.13798 4.71409C11.356 0.00109339 19.072 -0.184907 26.172 0.0680929C26.493 0.0790929 26.814 0.0900929 27.132 0.103093C31.363 0.275093 35.595 0.448093 39.826 0.620093C45.043 0.833093 50.261 1.04509 55.479 1.25609C57.205 1.32709 58.931 1.39709 60.658 1.46709C67.392 1.74009 74.374 2.07709 80.361 5.16009C89.583 9.90809 94.528 20.1561 97.31 30.1211C97.438 30.5781 97.561 31.0391 97.682 31.5001C100.721 43.1231 101.423 55.9271 95.798 66.4931Z" fill="#4DA3FF"/>
</g>
<path d="M66.678 19.4961H71.7906Z" fill="white"/>
<path d="M66.678 19.4961H71.7906" stroke="#F8F9FA" stroke-width="1.5" stroke-miterlimit="10" stroke-linecap="round" stroke-linejoin="round"/>
<path d="M63.7747 19.4961H64.3979Z" fill="white"/>
<path d="M63.7747 19.4961H64.3979" stroke="#F8F9FA" stroke-width="1.5" stroke-miterlimit="10" stroke-linecap="round" stroke-linejoin="round"/>
<path d="M63.7747 22.2485H71.7906Z" fill="white"/>
<path d="M63.7747 22.2485H71.7906" stroke="#F8F9FA" stroke-width="1.5" stroke-miterlimit="10" stroke-linecap="round" stroke-linejoin="round"/>
<mask id="mask0_124_277" style="mask-type:luminance" maskUnits="userSpaceOnUse" x="35" y="16" width="40" height="40">
<path d="M74.25 55.25V16.75H35.75V55.25H74.25Z" fill="white" stroke="white" stroke-width="1.5"/>
</mask>
<g mask="url(#mask0_124_277)">
<path d="M59.6616 30.1148V32.5122C59.6616 33.5024 58.8589 34.3052 57.8686 34.3052H56.3906" stroke="#F8F9FA" stroke-width="1.5" stroke-miterlimit="10" stroke-linecap="round" stroke-linejoin="round"/>
<path d="M64.5171 52.8699H36.846C36.1501 52.8699 35.5861 53.4339 35.5861 54.1298C35.5861 54.8256 36.1501 55.3896 36.846 55.3896H64.5171C65.2129 55.3896 65.777 54.8256 65.777 54.1298C65.777 53.4339 65.2129 52.8699 64.5171 52.8699Z" stroke="#F8F9FA" stroke-width="1.5" stroke-miterlimit="10" stroke-linecap="round" stroke-linejoin="round"/>
<path d="M52.2537 52.8701C52.2537 51.8376 52.6406 50.845 53.3313 50.0776C53.3365 50.0719 53.3417 50.0661 53.3468 50.0604C53.9117 49.4283 54.2553 48.5943 54.2553 47.6798C54.2553 46.3472 53.5258 45.185 52.4444 44.5707C52.2392 44.454 51.9845 44.6007 51.9845 44.8366V47.4953C51.9845 47.9409 51.6232 48.3021 51.1775 48.3021H50.1856C49.74 48.3021 49.3787 47.9409 49.3787 47.4953V44.8366C49.3787 44.6007 49.1238 44.454 48.9187 44.5707C47.8374 45.185 47.1079 46.3472 47.1079 47.6798C47.1079 48.5943 47.4514 49.4283 48.0163 50.0604C48.0215 50.0661 48.0267 50.0719 48.0318 50.0776C48.7226 50.845 49.1095 51.8376 49.1095 52.8701" stroke="#F8F9FA" stroke-width="1.5" stroke-miterlimit="10" stroke-linecap="round" stroke-linejoin="round"/>
<path d="M38.6067 50.5836L38.7308 52.8701" stroke="#F8F9FA" stroke-width="1.5" stroke-miterlimit="10" stroke-linecap="round" stroke-linejoin="round"/>
<path d="M62.6323 52.8701L63.213 42.1715C63.2688 41.1414 62.4487 40.2754 61.417 40.2754H39.9461C38.9145 40.2754 38.0942 41.1414 38.1502 42.1715L38.4591 47.8642" stroke="#F8F9FA" stroke-width="1.5" stroke-miterlimit="10" stroke-linecap="round" stroke-linejoin="round"/>
<path d="M65.3082 53.1499V50.6954C65.3082 48.3314 64.4868 46.1304 63.0924 44.3917" stroke="#F8F9FA" stroke-width="1.5" stroke-miterlimit="10" stroke-linecap="round" stroke-linejoin="round"/>
<path d="M38.2707 44.3917C36.8763 46.1304 36.0549 48.3314 36.0549 50.6954V53.1499" stroke="#F8F9FA" stroke-width="1.5" stroke-miterlimit="10" stroke-linecap="round" stroke-linejoin="round"/>
<path d="M56.6465 21.4161H56.5808C56.2171 21.4161 55.9223 21.1214 55.9223 20.7577C55.9223 19.6809 55.0495 18.808 53.9727 18.808H47.7673C45.0056 18.808 42.767 21.0467 42.767 23.8083V27.1128C42.767 27.5982 43.0741 28.0304 43.5325 28.1901L44.7642 28.6189C45.1947 28.7688 45.6443 28.4487 45.6436 27.9929L45.6409 25.6627C45.6362 24.5295 46.5399 23.6069 47.6594 23.6021L47.6838 23.602C48.0265 23.6005 48.3654 23.6537 48.6892 23.7578C49.2628 23.9421 49.8571 24.0538 50.4596 24.0512H50.9035C51.506 24.0538 52.1003 23.9421 52.6739 23.7578C52.9977 23.6537 53.3366 23.6005 53.6793 23.602L53.7037 23.6021C54.8232 23.6069 55.7269 24.5295 55.7222 25.6627L55.7199 27.993C55.7193 28.4489 56.1689 28.7688 56.5993 28.6189L57.8306 28.1901C58.289 28.0304 58.5961 27.5983 58.5961 27.1129V23.3658C58.5961 22.289 57.7232 21.4161 56.6465 21.4161Z" stroke="#F8F9FA" stroke-width="1.5" stroke-miterlimit="10" stroke-linecap="round" stroke-linejoin="round"/>
<path d="M44.2867 31.5882H44.2977C44.3408 33.2877 45.0533 34.9208 46.3328 36.0264C47.3629 36.9165 48.8089 37.6912 50.7147 37.7046C52.6203 37.6749 54.0599 36.8879 55.0825 35.989C56.3275 34.8947 57.0219 33.2982 57.0764 31.6345" stroke="#F8F9FA" stroke-width="1.5" stroke-miterlimit="10" stroke-linecap="round" stroke-linejoin="round"/>
<path d="M42.7669 26.8562C42.1609 26.9678 41.7014 27.4978 41.7014 28.1361V30.3616C41.7014 31.0809 42.2845 31.6641 43.0039 31.6641H44.2867V28.4528" stroke="#F8F9FA" stroke-width="1.5" stroke-miterlimit="10" stroke-linecap="round" stroke-linejoin="round"/>
<path d="M57.0763 28.453V31.6641H58.359C59.0784 31.6641 59.6615 31.0809 59.6615 30.3616V28.1362C59.6615 27.4979 59.2021 26.9678 58.5961 26.8563" stroke="#F8F9FA" stroke-width="1.5" stroke-miterlimit="10" stroke-linecap="round" stroke-linejoin="round"/>
<path d="M55.1034 35.2246H53.6329C53.0719 35.2246 52.6171 34.7698 52.6171 34.2088C52.6171 33.6477 53.0719 33.193 53.6329 33.193H55.1034C55.6644 33.193 56.1192 33.6477 56.1192 34.2088C56.1192 34.7698 55.6644 35.2246 55.1034 35.2246Z" stroke="#F8F9FA" stroke-width="1.5" stroke-miterlimit="10" stroke-linecap="round" stroke-linejoin="round"/>
<path d="M54.8368 40.2754C54.2985 39.9835 53.943 39.4159 53.943 38.7766V36.8124" stroke="#F8F9FA" stroke-width="1.5" stroke-miterlimit="10" stroke-linecap="round" stroke-linejoin="round"/>
<path d="M47.4199 36.8063V38.7766C47.4199 39.4268 47.0541 39.9873 46.5243 40.2754" stroke="#F8F9FA" stroke-width="1.5" stroke-miterlimit="10" stroke-linecap="round" stroke-linejoin="round"/>
<path d="M74.4143 19.4485V18.3145C74.4143 17.3734 73.6514 16.6105 72.7102 16.6105H62.8554C61.9143 16.6105 61.1514 17.3734 61.1514 18.3145V23.2432C61.1514 24.1843 61.9143 24.9472 62.8554 24.9472C63.405 24.9472 63.8506 25.3928 63.8506 25.9424V28.9904C63.8506 29.3774 64.3602 29.5185 64.5592 29.1866L66.8116 25.4306C66.9914 25.1307 67.3154 24.9472 67.665 24.9472H72.7102C73.6514 24.9472 74.4143 24.1843 74.4143 23.2432V22.1879" stroke="#F8F9FA" stroke-width="1.5" stroke-miterlimit="10" stroke-linecap="round" stroke-linejoin="round"/>
</g>
<defs>
<clipPath id="clip0_124_277">
<rect width="100" height="80" fill="white"/>
</clipPath>
</defs>
</svg>
